# xmcd database file
#
# Track frame offsets:
# 150
# 17912
# 34687
# 52327
# 63987
# 72832
# 89635
# 100892
# 113635
# 122527
# 141492
# 146507
# 156340
# 167875
# 173290
# 182509
# 201527
# 214352
# 225162
#
# Disc length: 3217 seconds
#
# Revision: 1
# Processed by: cddbd v1.5PL3 Copyright (c) Steve Scherf et al.
# Submitted via: CD-Runner 2004.04
#
DISCID=140c8f13
DTITLE=Andy Cohen - Play it a Long Time
DYEAR=2003
DGENRE=Blues
TTITLE0=Seabound Train Blues
TTITLE1=Pea Vine
TTITLE2=Mississippi Heavy Water Blues
TTITLE3=Organ Grinder Swing
TTITLE4=Shuffle Rag
TTITLE5=Oh Glory How Happy I Am
TTITLE6=Riley and Spencer
TTITLE7=Church Bells
TTITLE8=Hawkins Rag
TTITLE9=Wee Midnight Hour
TTITLE10=Shack Rouster Song
TTITLE11=Crow Jane
TTITLE12=Cookbook
TTITLE13=When My Sugar Walks Down the Street
TTITLE14=Five and Ten Cent Blues
TTITLE15=Samson and Delilah
TTITLE16=Children of Zion
TTITLE17=Sailin' Down the Chesapeake Bay
TTITLE18=Last Chance Blues
EXTD=
EXTT0=Larry Johnson
EXTT1=Charlie Patton
EXTT2=Barbeque Bob
EXTT3=Clarence Williams
EXTT4=Big Bill Broonzy
EXTT5=Rev. Gary Davis
EXTT6=Fields Ward
EXTT7=L. Jordan - W. McTell
EXTT8=Ernie Hawkins
EXTT9=Leroy Carr
EXTT10=Walt Phelps
EXTT11=Skip James
EXTT12=Larry Johnson
EXTT13=Mill - McHugh - Austin
EXTT14=A.M. Cohen
EXTT15=Rev. Gary Davis
EXTT16=Rev. Gary Davis
EXTT17=Havez/ Botsford
EXTT18=Gus Cannon
PLAYORDER=
